<svg width="20" height="20" viewBox="0 0 20 20" fill="none" xmlns="http://www.w3.org/2000/svg">
<path fill-rule="evenodd" clip-rule="evenodd" d="M2.31192 2.29872C2.72311 1.89385 3.2781 1.66867 3.85413 1.66867H9.99996C10.2209 1.66867 10.4328 1.75641 10.5891 1.91261L14.7557 6.07729C14.9941 6.31554 15.0655 6.67391 14.9366 6.98531C14.8078 7.29672 14.504 7.49986 14.167 7.50002L10.0004 7.502C9.77927 7.50211 9.56721 7.41436 9.41084 7.25807C9.25448 7.10177 9.16663 6.88975 9.16663 6.66867V3.33534H3.85413C3.71186 3.33534 3.57797 3.3911 3.48126 3.48633C3.38498 3.58113 3.33329 3.70693 3.33329 3.83534V16.1687C3.33329 16.2971 3.38497 16.4229 3.48126 16.5177C3.57797 16.6129 3.71186 16.6687 3.85413 16.6687H12.8125C12.9909 16.6687 13.2294 16.6682 13.4238 16.6677L13.7668 16.6667C14.227 16.6652 14.6018 17.037 14.6033 17.4973C14.6049 17.9575 14.233 18.3318 13.7727 18.3333L13.428 18.3343C13.2335 18.3348 12.9932 18.3353 12.8125 18.3353H3.85413C3.2781 18.3353 2.72311 18.1101 2.31192 17.7053C1.90028 17.3 1.66663 16.7475 1.66663 16.1687V3.83534C1.66663 3.2565 1.90028 2.70402 2.31192 2.29872ZM10.8333 4.51317L12.1551 5.83431L10.8333 5.83494V4.51317ZM16.0774 8.99401C16.4029 8.66861 16.9306 8.66868 17.256 8.99416L19.756 11.4948C19.9122 11.6511 20 11.8631 20 12.0841C19.9999 12.3051 19.9121 12.5171 19.7558 12.6733L17.2558 15.1727C16.9303 15.4981 16.4027 15.498 16.0773 15.1725C15.7519 14.847 15.752 14.3194 16.0774 13.994L17.1544 12.9173H10.8333C10.3731 12.9173 9.99996 12.5442 9.99996 12.084C9.99996 11.6238 10.3731 11.2507 10.8333 11.2507H17.1552L16.0773 10.1725C15.7519 9.84704 15.752 9.3194 16.0774 8.99401Z" fill="#111111"/>
</svg>
