<svg width="20" height="20" viewBox="0 0 20 20" fill="none" xmlns="http://www.w3.org/2000/svg">
<path fill-rule="evenodd" clip-rule="evenodd" d="M3.33337 5.83333C3.33337 5.3731 3.70647 5 4.16671 5H15.8334C16.2936 5 16.6667 5.3731 16.6667 5.83333C16.6667 6.29357 16.2936 6.66667 15.8334 6.66667H4.16671C3.70647 6.66667 3.33337 6.29357 3.33337 5.83333ZM5.83337 10C5.83337 9.53976 6.20647 9.16667 6.66671 9.16667H13.3334C13.7936 9.16667 14.1667 9.53976 14.1667 10C14.1667 10.4602 13.7936 10.8333 13.3334 10.8333H6.66671C6.20647 10.8333 5.83337 10.4602 5.83337 10ZM8.33337 14.1667C8.33337 13.7064 8.70647 13.3333 9.16671 13.3333H10.8334C11.2936 13.3333 11.6667 13.7064 11.6667 14.1667C11.6667 14.6269 11.2936 15 10.8334 15H9.16671C8.70647 15 8.33337 14.6269 8.33337 14.1667Z" fill="#111111"/>
</svg>
