<svg width="40" height="40" viewBox="0 0 40 40" fill="none" xmlns="http://www.w3.org/2000/svg">
<g clip-path="url(#clip0_44_348)">
<path d="M31.7399 40.06H8.18987C3.64987 40.06 -0.0701294 36.34 -0.0701294 31.8V8.26C-0.0701294 3.71 3.64987 0 8.18987 0H31.7299C36.2799 0 39.9999 3.71 39.9999 8.26V31.8C39.9999 36.35 36.2799 40.06 31.7399 40.06Z" fill="#00D373"/>
<path d="M8.43824 9.65886H31.4083C32.2383 9.65886 32.7682 10.4889 32.4382 11.2289L23.4382 32.5789C23.2682 32.9889 22.8582 33.2789 22.4082 33.2789H17.6982C17.2482 33.2789 16.8282 32.9889 16.6682 32.5789L7.40824 11.2689C7.07824 10.4889 7.61824 9.65886 8.43824 9.65886Z" fill="white"/>
<path opacity="0.5" d="M16.5404 33.2884L5.22039 18.4984C4.72039 17.8784 5.22039 16.9684 6.05039 16.9684H14.6004C14.9704 16.9684 15.3004 17.2184 15.3804 17.5884L18.7704 33.3284" fill="#00BA65"/>
<path opacity="0.5" d="M23.4015 33.3288L34.7515 18.4988C35.2515 17.8788 34.7515 16.9688 33.9215 16.9688H25.3315C24.9615 16.9688 24.6315 17.2188 24.5515 17.5888L21.1615 33.2888" fill="#00BA65"/>
</g>
<defs>
<clipPath id="clip0_44_348">
<rect width="40" height="40" fill="white"/>
</clipPath>
</defs>
</svg>
