<svg xmlns="http://www.w3.org/2000/svg" width="20" height="20" viewBox="0 0 20 20" fill="none">
<path fill-rule="evenodd" clip-rule="evenodd" d="M9.99996 4.16666C10.4602 4.16666 10.8333 4.53975 10.8333 4.99999V9.16666H15C15.4602 9.16666 15.8333 9.53975 15.8333 9.99999C15.8333 10.4602 15.4602 10.8333 15 10.8333H10.8333V15C10.8333 15.4602 10.4602 15.8333 9.99996 15.8333C9.53972 15.8333 9.16663 15.4602 9.16663 15V10.8333H4.99996C4.53972 10.8333 4.16663 10.4602 4.16663 9.99999C4.16663 9.53975 4.53972 9.16666 4.99996 9.16666H9.16663V4.99999C9.16663 4.53975 9.53972 4.16666 9.99996 4.16666Z" fill="#111111"/>
</svg>